<svg width="24" height="24" viewBox="0 0 24 24" fill="none" xmlns="http://www.w3.org/2000/svg">
<path fill-rule="evenodd" clip-rule="evenodd" d="M2.99922 3.59998C2.52183 3.59998 2.06399 3.78962 1.72643 4.12718C1.38886 4.46475 1.19922 4.92259 1.19922 5.39998V10.2C1.19922 10.6774 1.38886 11.1352 1.72643 11.4728C2.06399 11.8103 2.52183 12 2.99922 12H10.1992C10.6766 12 11.1344 11.8103 11.472 11.4728C11.8096 11.1352 11.9992 10.6774 11.9992 10.2V5.39998C11.9992 4.92259 11.8096 4.46475 11.472 4.12718C11.1344 3.78962 10.6766 3.59998 10.1992 3.59998H2.99922ZM16.1992 5.99998C15.7218 5.99998 15.264 6.18962 14.9264 6.52718C14.5889 6.86475 14.3992 7.32259 14.3992 7.79998V16.2C14.3992 16.6774 14.5889 17.1352 14.9264 17.4728C15.264 17.8103 15.7218 18 16.1992 18H20.9992C21.4766 18 21.9344 17.8103 22.272 17.4728C22.6096 17.1352 22.7992 16.6774 22.7992 16.2V7.79998C22.7992 7.32259 22.6096 6.86475 22.272 6.52718C21.9344 6.18962 21.4766 5.99998 20.9992 5.99998H16.1992ZM4.19922 14.4C3.72183 14.4 3.26399 14.5896 2.92643 14.9272C2.58886 15.2647 2.39922 15.7226 2.39922 16.2V18.6C2.39922 19.0774 2.58886 19.5352 2.92643 19.8728C3.26399 20.2103 3.72183 20.4 4.19922 20.4H11.3992C11.8766 20.4 12.3344 20.2103 12.672 19.8728C13.0096 19.5352 13.1992 19.0774 13.1992 18.6V16.2C13.1992 15.7226 13.0096 15.2647 12.672 14.9272C12.3344 14.5896 11.8766 14.4 11.3992 14.4H4.19922Z" fill="#27CDF1"/>
</svg>
